# File created by Blade
# Date/Time:  Thu Jan 15 19:03:44 2015
#---------------------------------------------------------
:version 1.10
:name HOM
:units
  mass 1.0
  length 1.000000
  angle deg
:documentation
     Acclaim Skeleton File
:root
   axis xyz
   order TX TY TZ RX RY RZ
   position 0.000000 0.000000 0.000000
   orientation 0 0 0
:bonedata
   begin
      id 1
      name Spine_dum
      direction 0.000000 1.000000 0.000000
      length 4.354460
      axis 0.0 0.0 0.0 xyz
   end
   begin
      id 2
      name LeftUpLeg_dum
      direction 1.000000 0.000000 0.000000
      length 4.291077
      axis 0.0 0.0 0.0 xyz
   end
   begin
      id 3
      name RightUpLeg_dum
      direction -1.000000 0.000000 0.000000
      length 4.291077
      axis 0.0 0.0 0.0 xyz
   end
   begin
      id 4
      name Spine
      direction 0.000000 1.000000 0.000000
      length 0.000000
      axis 0.0 0.0 0.0 xyz
      dof rx ry rz
   end
   begin
      id 5
      name Spine_dum1
      direction 0.000000 1.000000 0.000000
      length 16.581769
      axis 0.0 0.0 0.0 xyz
   end
   begin
      id 6
      name Spine_dum2
      direction 0.000000 1.000000 0.000000
      length 12.903700
      axis 0.0 0.0 0.0 xyz
   end
   begin
      id 7
      name Spine_dum3
      direction 0.000000 1.000000 0.000000
      length 12.903700
      axis 0.0 0.0 0.0 xyz
   end
   begin
      id 8
      name Head
      direction 0.000000 1.000000 0.000000
      length 4.527550
      axis 0.0 0.0 0.0 xyz
      dof rx ry rz
   end
   begin
      id 9
      name LeftShoulder
      direction 1.000000 0.000000 0.000000
      length 6.942033
      axis 0.0 0.0 -90.0 xyz
      dof rx ry rz
   end
   begin
      id 10
      name LeftArm
      direction 1.000000 0.000000 0.000000
      length 11.010391
      axis 0.0 0.0 -90.0 xyz
      dof rx ry rz
   end
   begin
      id 11
      name LeftForeArm
      direction 1.000000 0.000000 0.000000
      length 8.054994
      axis 0.0 0.0 -90.0 xyz
      dof rz ry rx
   end
   begin
      id 12
      name LeftHand
      direction 0.000000 0.000000 0.000000
      length 0.000000
      axis 0.0 0.0 -90.0 xyz
      dof rx ry rz
   end
   begin
      id 13
      name LeftHand_dum1
      direction 0.000000 0.000000 0.000000
      length 0.000000
      axis 0.0 0.0 -90.0 xyz
   end
   begin
      id 14
      name LeftHand_dum2
      direction 1.000000 0.000000 0.000000
      length 3.937000
      axis 0.0 0.0 -90.0 xyz
   end
   begin
      id 15
      name LeftHandThumb1
      direction 0.000000 0.000000 1.000000
      length 3.937000
      axis 0.0 0.0 -90.0 xyz
      dof rx ry rz
   end
   begin
      id 16
      name RightShoulder
      direction -1.000000 0.000000 0.000000
      length 6.942033
      axis 0.0 0.0 90.0 xyz
      dof rx ry rz
   end
   begin
      id 17
      name RightArm
      direction -1.000000 0.000000 0.000000
      length 11.010391
      axis 0.0 0.0 90.0 xyz
      dof rx ry rz
   end
   begin
      id 18
      name RightForeArm
      direction -1.000000 0.000000 0.000000
      length 8.054994
      axis 0.0 0.0 90.0 xyz
      dof rz ry rx
   end
   begin
      id 19
      name RightHand
      direction 0.000000 0.000000 0.000000
      length 0.000000
      axis 0.0 0.0 90.0 xyz
      dof rx ry rz
   end
   begin
      id 20
      name RightHand_dum1
      direction 0.000000 0.000000 0.000000
      length 0.000000
      axis 0.0 0.0 90.0 xyz
   end
   begin
      id 21
      name RightHand_dum2
      direction -1.000000 0.000000 0.000000
      length 3.937000
      axis 0.0 0.0 90.0 xyz
   end
   begin
      id 22
      name RightHandThumb1
      direction 0.000000 0.000000 1.000000
      length 3.937000
      axis 0.0 0.0 90.0 xyz
      dof rx ry rz
   end
   begin
      id 23
      name LeftUpLeg
      direction 0.000000 -1.000000 0.000000
      length 17.039958
      axis 0.0 0.0 0.0 xyz
      dof rx ry rz
   end
   begin
      id 24
      name LeftLeg
      direction 0.000000 -1.000000 0.000000
      length 16.939743
      axis 0.0 0.0 0.0 xyz
      dof rx ry rz
   end
   begin
      id 25
      name LeftFoot
      direction 0.000000 -0.258819 0.965926
      length 5.235044
      axis 15.0 0.0 0.0 xyz
      dof rx ry rz
   end
   begin
      id 26
      name LeftToeBase
      direction 0.000000 0.000000 1.000000
      length 2.952750
      axis 0.0 0.0 0.0 xyz
      dof rx ry rz
   end
   begin
      id 27
      name RightUpLeg
      direction 0.000000 -1.000000 0.000000
      length 17.039958
      axis 0.0 0.0 0.0 xyz
      dof rx ry rz
   end
   begin
      id 28
      name RightLeg
      direction 0.000000 -1.000000 0.000000
      length 16.939743
      axis 0.0 0.0 0.0 xyz
      dof rx ry rz
   end
   begin
      id 29
      name RightFoot
      direction 0.000000 -0.258819 0.965926
      length 5.235044
      axis 15.0 0.0 0.0 xyz
      dof rx ry rz
   end
   begin
      id 30
      name RightToeBase
      direction 0.000000 0.000000 1.000000
      length 2.952750
      axis 0.0 0.0 0.0 xyz
      dof rx ry rz
   end
:hierarchy
   begin
      root Spine_dum LeftUpLeg_dum RightUpLeg_dum
      Spine_dum Spine
      LeftUpLeg_dum LeftUpLeg
      RightUpLeg_dum RightUpLeg
      Spine Spine_dum1 Spine_dum2 Spine_dum3
      Spine_dum1 Head
      Spine_dum2 LeftShoulder
      Spine_dum3 RightShoulder
      LeftShoulder LeftArm
      LeftArm LeftForeArm
      LeftForeArm LeftHand
      LeftHand LeftHand_dum1 LeftHand_dum2
      LeftHand_dum1 LeftHandThumb1
      RightShoulder RightArm
      RightArm RightForeArm
      RightForeArm RightHand
      RightHand RightHand_dum1 RightHand_dum2
      RightHand_dum1 RightHandThumb1
      LeftUpLeg LeftLeg
      LeftLeg LeftFoot
      LeftFoot LeftToeBase
      RightUpLeg RightLeg
      RightLeg RightFoot
      RightFoot RightToeBase
   end

# File created by Blade
# Date/Time:  Thu Jan 15 19:03:33 2015
# Frame Rate: 120.000 fps
#------------------------------------------------------
:FULLY-SPECIFIED
:DEGREES
1650
root -3.253541 35.155378 -9.286569 -185.014729 2.322283 -179.029980
Spine 3.468723 15.039977 0.055028
Head 3.889979 -9.590739 11.005899
LeftShoulder -9.979508 16.491230 -5.311436
LeftArm 7.251677 -26.002101 -74.808225
LeftForeArm -0.000000 -2.000945 9.734584
LeftHand 2.692819 -0.000000 2.174042
LeftHandThumb1 -26.253704 33.147579 0.000000
RightShoulder -20.405520 -6.894498 4.965772
RightArm 0.123276 8.727445 70.564611
RightForeArm -0.000000 -27.840797 23.934766
RightHand -0.159475 0.000000 5.053960
RightHandThumb1 -24.326973 -32.862282 -0.000000
LeftUpLeg 8.048859 13.955730 -12.075504
LeftLeg -1.635009 -0.000000 0.000000
LeftFoot -16.599554 23.764153 -5.718198
LeftToeBase 17.103459 -0.000000 -0.000000
RightUpLeg -86.362050 -35.556389 17.328741
RightLeg 110.379624 -0.000000 -0.000000
RightFoot 39.019931 -37.271924 -20.740827
RightToeBase 17.411861 -0.000000 -0.000000
1651
root -3.221248 35.155979 -9.274170 -185.109730 2.351098 -179.067394
Spine 3.534853 14.988527 -0.044733
Head 3.920913 -9.565562 11.081722
LeftShoulder -9.969604 16.473870 -5.236906
LeftArm 7.549936 -25.755276 -74.795174
LeftForeArm -0.000000 -2.060304 9.827674
LeftHand 2.861475 0.000000 2.272543
LeftHandThumb1 -26.253704 33.147579 0.000000
RightShoulder -20.378303 -6.898845 5.017453
RightArm 0.113371 8.853094 70.616000
RightForeArm -0.000000 -27.902232 23.942902
RightHand -0.137231 0.000000 5.070652
RightHandThumb1 -24.326973 -32.862282 -0.000000
LeftUpLeg 8.071570 13.865806 -12.072788
LeftLeg -1.553464 -0.000000 0.000000
LeftFoot -16.596653 23.918761 -5.620767
LeftToeBase 17.106015 -0.000000 -0.000000
RightUpLeg -85.722148 -34.774472 16.751446
RightLeg 110.055495 -0.000000 -0.000000
RightFoot 39.132653 -37.424114 -20.820359
RightToeBase 17.466898 -0.000000 -0.000000
1652
root -3.188970 35.156681 -9.257205 -185.209855 2.374502 -179.122301
Spine 3.638116 14.992194 -0.165378
Head 3.873213 -9.540494 11.208989
LeftShoulder -9.924169 16.415811 -5.128047
LeftArm 7.860230 -25.463481 -74.790726
LeftForeArm -0.000000 -2.116512 9.925581
LeftHand 2.866587 -0.000000 2.400320
LeftHandThumb1 -26.253704 33.147579 0.000000
RightShoulder -20.399892 -6.856789 5.064580
RightArm 0.071032 8.901012 70.668621
RightForeArm -0.000000 -27.800323 23.953474
RightHand -0.149968 -0.000000 4.953187
RightHandThumb1 -24.326973 -32.862282 -0.000000
LeftUpLeg 8.086773 13.764551 -12.090610
LeftLeg -1.464320 -0.000000 0.000000
LeftFoot -16.592082 24.091341 -5.517489
LeftToeBase 17.122202 -0.000000 -0.000000
RightUpLeg -85.055951 -33.912411 16.111309
RightLeg 109.700247 -0.000000 -0.000000
RightFoot 39.427261 -37.488126 -21.061399
RightToeBase 17.446406 -0.000000 -0.000000
1653
root -3.154242 35.158105 -9.241818 -185.305202 2.446772 -179.148342
Spine 3.717520 14.992074 -0.255715
Head 3.871700 -9.478363 11.338476
LeftShoulder -9.900825 16.368208 -5.017800
LeftArm 8.189128 -25.240215 -74.808885
LeftForeArm -0.000000 -2.101795 10.007152
LeftHand 2.873339 0.000000 2.483355
LeftHandThumb1 -26.253704 33.147579 0.000000
RightShoulder -20.369732 -6.809982 5.108483
RightArm 0.009067 8.920179 70.701549
RightForeArm -0.000000 -27.761479 23.977357
RightHand -0.249810 0.000000 4.921207
RightHandThumb1 -24.326973 -32.862282 -0.000000
LeftUpLeg 8.107298 13.684689 -12.075026
LeftLeg -1.392237 -0.000000 0.000000
LeftFoot -16.597369 24.268845 -5.413836
LeftToeBase 17.165978 -0.000000 -0.000000
RightUpLeg -84.344610 -32.930668 15.459795
RightLeg 109.321241 -0.000000 -0.000000
RightFoot 39.585150 -37.657444 -21.147543
RightToeBase 17.447119 -0.000000 -0.000000
1654
root -3.116541 35.160799 -9.228111 -185.382331 2.576372 -179.161789
Spine 3.753569 15.048551 -0.345459
Head 3.919515 -9.492880 11.452731
LeftShoulder -9.867230 16.354981 -4.903353
LeftArm 8.592265 -25.058098 -74.840296
LeftForeArm -0.000000 -2.183538 10.001688
LeftHand 2.988432 -0.000000 2.615740
LeftHandThumb1 -26.253704 33.147579 0.000000
RightShoulder -20.390759 -6.854344 5.205392
RightArm 0.051458 8.950764 70.730595
RightForeArm -0.000000 -27.727902 23.978610
RightHand -0.205085 0.000000 4.876942
RightHandThumb1 -24.326973 -32.862282 -0.000000
LeftUpLeg 8.110818 13.616533 -12.049603
LeftLeg -1.328393 -0.000000 0.000000
LeftFoot -16.608777 24.479526 -5.341542
LeftToeBase 17.173820 -0.000000 -0.000000
RightUpLeg -83.611452 -31.812424 14.798151
RightLeg 108.905271 -0.000000 -0.000000
RightFoot 39.695373 -37.807659 -21.254553
RightToeBase 17.592749 -0.000000 -0.000000
1655
root -3.079558 35.163917 -9.216352 -185.480408 2.725420 -179.194089
Spine 3.809834 15.105816 -0.443945
Head 3.965771 -9.435462 11.586546
LeftShoulder -9.837068 16.295463 -4.775634
LeftArm 8.928727 -24.786403 -74.836767
LeftForeArm -0.000000 -2.224897 10.050528
LeftHand 3.054481 -0.000000 2.692801
LeftHandThumb1 -26.253704 33.147579 0.000000
RightShoulder -20.378893 -6.905540 5.276392
RightArm 0.080194 8.862443 70.780796
RightForeArm -0.000000 -27.502509 23.974286
RightHand -0.213464 -0.000000 4.746909
RightHandThumb1 -24.326973 -32.862282 -0.000000
LeftUpLeg 8.148875 13.512491 -12.042631
LeftLeg -1.288751 -0.000000 0.000000
LeftFoot -16.608454 24.735764 -5.291319
LeftToeBase 17.233556 -0.000000 -0.000000
RightUpLeg -82.827711 -30.610106 14.062093
RightLeg 108.489040 -0.000000 -0.000000
RightFoot 39.769880 -37.896026 -21.337102
RightToeBase 17.421014 -0.000000 -0.000000
1656
root -3.035994 35.167974 -9.201950 -185.583504 2.967206 -179.215304
Spine 3.879638 15.239657 -0.536768
Head 3.995364 -9.366025 11.728765
LeftShoulder -9.778362 16.235944 -4.637357
LeftArm 9.238492 -24.516814 -74.826201
LeftForeArm -0.000000 -2.302688 10.178002
LeftHand 3.022530 0.000000 2.690236
LeftHandThumb1 -26.253704 33.147579 0.000000
RightShoulder -20.411269 -6.918091 5.367275
RightArm 0.100606 8.846192 70.829126
RightForeArm -0.000000 -27.581271 24.019437
RightHand -0.187104 -0.000000 4.730841
RightHandThumb1 -24.326973 -32.862282 -0.000000
LeftUpLeg 8.184170 13.448219 -12.013025
LeftLeg -1.256497 -0.000000 0.000000
LeftFoot -16.628443 25.030888 -5.256013
LeftToeBase 17.303770 -0.000000 -0.000000
RightUpLeg -82.019065 -29.234608 13.354263
RightLeg 108.035960 -0.000000 -0.000000
RightFoot 39.793484 -37.967123 -21.532551
RightToeBase 17.613158 -0.000000 -0.000000
1657
root -2.991739 35.173157 -9.191626 -185.762511 3.228247 -179.251567
Spine 4.029895 15.388582 -0.634693
Head 4.028679 -9.299340 11.898707
LeftShoulder -9.707386 16.177299 -4.477894
LeftArm 9.596852 -24.376707 -74.858846
LeftForeArm 0.000000 -2.292570 10.260312
LeftHand 3.067306 -0.000000 2.715955
LeftHandThumb1 -26.253704 33.147579 0.000000
RightShoulder -20.440251 -6.961944 5.484073
RightArm 0.145635 8.420644 70.821127
RightForeArm -0.000000 -27.143821 24.074924
RightHand -0.363772 -0.000000 4.455018
RightHandThumb1 -24.326973 -32.862282 -0.000000
LeftUpLeg 8.285405 13.390487 -11.982359
LeftLeg -1.197398 -0.000000 0.000000
LeftFoot -16.661630 25.354277 -5.272248
LeftToeBase 17.354408 -0.000000 -0.000000
RightUpLeg -81.112106 -27.769128 12.547597
RightLeg 107.580106 -0.000000 -0.000000
RightFoot 39.812954 -37.957136 -21.731271
RightToeBase 17.876663 -0.000000 -0.000000
1658
root -2.935989 35.181372 -9.174987 -185.881308 3.543117 -179.203497
Spine 4.119755 15.560183 -0.676515
Head 4.072783 -9.234940 12.098622
LeftShoulder -9.634931 16.112030 -4.311025
LeftArm 9.946201 -24.194945 -74.878054
LeftForeArm -0.000000 -2.309551 10.386912
LeftHand 3.078645 -0.000000 2.841779
LeftHandThumb1 -26.253704 33.147579 0.000000
RightShoulder -20.475611 -6.968280 5.625085
RightArm 0.185395 8.364345 70.840729
RightForeArm -0.000000 -27.163316 24.114090
RightHand -0.290106 0.000000 4.517674
RightHandThumb1 -24.326973 -32.862282 -0.000000
LeftUpLeg 8.321266 13.381233 -11.858075
LeftLeg -1.143684 -0.000000 0.000000
LeftFoot -16.692746 25.703198 -5.190966
LeftToeBase 17.422780 -0.000000 -0.000000
RightUpLeg -80.250600 -26.138721 11.883916
RightLeg 107.064357 -0.000000 -0.000000
RightFoot 39.872532 -38.022711 -21.901774
RightToeBase 17.753649 -0.000000 -0.000000
1659
root -2.884259 35.189427 -9.165096 -186.128120 3.822933 -179.250684
Spine 4.338563 15.677314 -0.793239
Head 4.124716 -9.159997 12.300317
LeftShoulder -9.542636 16.051128 -4.119541
LeftArm 10.281443 -24.058301 -74.914382
LeftForeArm 0.000000 -2.170087 10.531997
LeftHand 3.020180 -0.000000 2.733270
LeftHandThumb1 -26.253704 33.147579 0.000000
RightShoulder -20.481726 -6.979400 5.741084
RightArm 0.270319 8.416596 70.921108
RightForeArm -0.000000 -27.304143 24.076364
RightHand -0.315377 -0.000000 4.429420
RightHandThumb1 -24.326973 -32.862282 -0.000000
LeftUpLeg 8.473346 13.371725 -11.805708
LeftLeg -1.047155 -0.000000 0.000000
LeftFoot -16.748611 26.012282 -5.267751
LeftToeBase 17.448646 -0.000000 -0.000000
RightUpLeg -79.301288 -24.515931 11.046832
RightLeg 106.592430 -0.000000 -0.000000
RightFoot 39.821824 -38.094471 -21.887730
RightToeBase 17.668379 -0.000000 -0.000000
1660
root -2.825337 35.200028 -9.155976 -186.316281 4.184818 -179.230491
Spine 4.472303 15.823466 -0.869551
Head 4.213744 -9.028892 12.535712
LeftShoulder -9.458544 15.940706 -3.888925
LeftArm 10.516476 -23.786597 -74.913954
LeftForeArm 0.000000 -2.249188 10.692452
LeftHand 3.131720 0.000000 2.847384
LeftHandThumb1 -26.253704 33.147579 0.000000
RightShoulder -20.491636 -6.955675 5.875972
RightArm 0.312777 8.439882 70.954159
RightForeArm -0.000000 -27.505850 24.084256
RightHand -0.118656 -0.000000 4.642085
RightHandThumb1 -24.326973 -32.862282 -0.000000
LeftUpLeg 8.575486 13.459304 -11.679051
LeftLeg -0.968097 -0.000000 0.000000
LeftFoot -16.803713 26.333254 -5.280514
LeftToeBase 17.471418 -0.000000 -0.000000
RightUpLeg -78.410520 -22.742292 10.356743
RightLeg 106.067617 -0.000000 -0.000000
RightFoot 39.840657 -38.116896 -22.104500
RightToeBase 17.762380 -0.000000 -0.000000
